#N canvas 1 41 958 1015 10;
#X obj 150 313 osc~;
#X obj 187 316 osc~;
#X obj 222 323 osc~;
#X obj 263 329 osc~;
#X obj 430 427 *~;
#X obj 490 427 *~;
#X obj 549 426 *~;
#X obj 610 427 *~;
#X obj 86 152 hsl 128 15 100 1000 0 0 empty empty empty -2 -8 0 10
-262144 -1 -1 0 1;
#X obj 564 209 vsl 15 128 0 1 0 0 empty empty empty 0 -9 0 10 -262144
-1 -1 0 1;
#X obj 116 182 hsl 128 15 100 1000 0 0 empty empty empty -2 -8 0 10
-262144 -1 -1 0 1;
#X obj 146 213 hsl 128 15 100 1000 0 0 empty empty empty -2 -8 0 10
-262144 -1 -1 0 1;
#X obj 176 242 hsl 128 15 100 1000 0 0 empty empty empty -2 -8 0 10
-262144 -1 -1 0 1;
#X obj 564 389 line~;
#X msg 564 363 \$1 10;
#X obj 624 209 vsl 15 128 0 1 0 0 empty empty empty 0 -9 0 10 -262144
-1 -1 0 1;
#X obj 624 388 line~;
#X msg 624 362 \$1 10;
#X obj 504 209 vsl 15 128 0 1 0 0 empty empty empty 0 -9 0 10 -262144
-1 -1 0 1;
#X obj 504 388 line~;
#X msg 504 362 \$1 10;
#X obj 445 200 vsl 15 128 0 1 0 0 empty empty empty 0 -9 0 10 -262144
-1 -1 0 1;
#X obj 444 388 line~;
#X msg 444 362 \$1 10;
#X obj 669 426 *~;
#X obj 730 427 *~;
#X obj 685 198 vsl 15 128 0 1 0 0 empty empty empty 0 -9 0 10 -262144
-1 -1 0 1;
#X obj 684 389 line~;
#X msg 684 363 \$1 10;
#X obj 744 207 vsl 15 128 0 1 0 0 empty empty empty 0 -9 0 10 -262144
-1 -1 0 1;
#X obj 744 388 line~;
#X msg 744 362 \$1 10;
#X obj 294 343 osc~;
#X obj 335 349 osc~;
#X obj 257 270 hsl 128 15 100 1000 0 0 empty empty empty -2 -8 0 10
-262144 -1 -1 0 1;
#X obj 287 299 hsl 128 15 100 1000 0 0 empty empty empty -2 -8 0 10
-262144 -1 -1 0 1;
#X obj 420 608 dac~ 1 2 3 4 5 6;
#X obj 149 24 hsl 128 15 0 1 0 0 empty empty empty -2 -8 0 10 -262144
-1 -1 0 1;
#X obj 148 51 oscformat net/mhcloud/volume/jack-volume/master;
#X obj 337 159 print p;
#X obj 315 137 oscparse;
#X obj 454 117 list prepend send;
#X obj 454 139 list trim;
#X obj 535 171 netsend -u -b;
#X msg 658 121 connect localhost 7600;
#X obj 150 574 vbap;
#X connect 0 0 4 0;
#X connect 1 0 5 0;
#X connect 2 0 6 0;
#X connect 3 0 7 0;
#X connect 4 0 36 0;
#X connect 5 0 36 1;
#X connect 6 0 36 2;
#X connect 7 0 36 3;
#X connect 8 0 0 0;
#X connect 9 0 14 0;
#X connect 10 0 1 0;
#X connect 11 0 2 0;
#X connect 12 0 3 0;
#X connect 13 0 6 1;
#X connect 14 0 13 0;
#X connect 15 0 17 0;
#X connect 16 0 7 1;
#X connect 17 0 16 0;
#X connect 18 0 20 0;
#X connect 19 0 5 1;
#X connect 20 0 19 0;
#X connect 21 0 23 0;
#X connect 22 0 4 1;
#X connect 23 0 22 0;
#X connect 24 0 36 4;
#X connect 25 0 36 5;
#X connect 26 0 28 0;
#X connect 27 0 24 1;
#X connect 28 0 27 0;
#X connect 29 0 31 0;
#X connect 30 0 25 1;
#X connect 31 0 30 0;
#X connect 32 0 24 0;
#X connect 33 0 25 0;
#X connect 34 0 32 0;
#X connect 35 0 33 0;
#X connect 37 0 38 0;
#X connect 38 0 40 0;
#X connect 38 0 41 0;
#X connect 40 0 39 0;
#X connect 41 0 42 0;
#X connect 42 0 43 0;
#X connect 44 0 43 0;
