#N canvas 1 41 1918 508 10;
#X obj 19 955 netsend -u -b;
#X obj 38 919 list trim;
#X obj 38 892 list prepend send;
#X obj 38 865 oscformat /oo;
#X obj 38 838 list;
#X msg 105 955 connect localhost 57120;
#X msg 258 954 disconnect;
#X obj 105 932 loadbang;
#X obj 39 809 list prepend chooseKey set;
#X msg 262 657 fkeych \$1;
#X floatatom 272 626 5 0 0 0 - - -, f 5;
#X obj 364 576 line;
#X msg 268 539 1;
#X msg 302 538 0;
#X msg 354 539 1 \, 0 64000;
#X msg 425 539 0 \, 1 64000;
#X obj 261 605 hsl 230 15 0 1 0 0 empty empty empty -2 -8 0 10 -262144
-1 -1 0 1;
#X msg 172 296 Silence;
#X msg 34 207 Attack_Long;
#X msg 34 229 Attack_Short;
#X msg 33 158 Sweep_Long;
#X msg 33 181 Sweep_Short;
#X msg 34 103 Mistro_Long;
#X msg 33 128 Mistro_Short;
#X msg 171 317 Tratados;
#X msg 172 105 Luana_Long;
#X msg 172 127 Luana_Short;
#X msg 170 177 Vassoura_Long;
#X msg 171 155 Vassoura_short;
#X msg 172 204 Vasos_Long;
#X msg 172 223 Vasos_Short;
#X msg 171 248 Madrigale_Long;
#X msg 172 269 Madrigale_Short;
#X msg 285 99 Ockegen_Long;
#X msg 285 122 Ockegen_Short;
#X msg 285 144 Vasio_Long;
#X msg 285 166 Vasio_Short;
#X msg 285 197 Madeira_Short;
#X msg 284 220 Maderira_Long;
#X msg 285 243 Consoantes_Short;
#X msg 284 266 Consoantes_Long;
#X msg 283 319 Zoom_Short;
#X msg 284 298 Zoom_Long;
#X msg 31 278 Estilhaco_Short;
#X msg 32 257 Estilhaco_Long;
#X msg 30 300 Estilhaco_Tratado;
#X msg 582 296 Silence;
#X msg 444 207 Attack_Long;
#X msg 444 229 Attack_Short;
#X msg 443 158 Sweep_Long;
#X msg 443 181 Sweep_Short;
#X msg 444 103 Mistro_Long;
#X msg 443 128 Mistro_Short;
#X msg 581 317 Tratados;
#X msg 582 105 Luana_Long;
#X msg 582 127 Luana_Short;
#X msg 580 177 Vassoura_Long;
#X msg 581 155 Vassoura_short;
#X msg 582 204 Vasos_Long;
#X msg 582 223 Vasos_Short;
#X msg 581 248 Madrigale_Long;
#X msg 582 269 Madrigale_Short;
#X msg 695 99 Ockegen_Long;
#X msg 695 122 Ockegen_Short;
#X msg 695 144 Vasio_Long;
#X msg 695 166 Vasio_Short;
#X msg 695 197 Madeira_Short;
#X msg 694 220 Maderira_Long;
#X msg 695 243 Consoantes_Short;
#X msg 694 266 Consoantes_Long;
#X msg 693 319 Zoom_Short;
#X msg 694 298 Zoom_Long;
#X msg 441 278 Estilhaco_Short;
#X msg 442 257 Estilhaco_Long;
#X msg 440 300 Estilhaco_Tratado;
#X msg 952 296 Silence;
#X msg 814 207 Attack_Long;
#X msg 814 229 Attack_Short;
#X msg 813 158 Sweep_Long;
#X msg 813 181 Sweep_Short;
#X msg 814 103 Mistro_Long;
#X msg 813 128 Mistro_Short;
#X msg 951 317 Tratados;
#X msg 952 105 Luana_Long;
#X msg 952 127 Luana_Short;
#X msg 950 177 Vassoura_Long;
#X msg 951 155 Vassoura_short;
#X msg 952 204 Vasos_Long;
#X msg 952 223 Vasos_Short;
#X msg 951 248 Madrigale_Long;
#X msg 952 269 Madrigale_Short;
#X msg 1065 99 Ockegen_Long;
#X msg 1065 122 Ockegen_Short;
#X msg 1065 144 Vasio_Long;
#X msg 1065 166 Vasio_Short;
#X msg 1065 197 Madeira_Short;
#X msg 1064 220 Maderira_Long;
#X msg 1065 243 Consoantes_Short;
#X msg 1064 266 Consoantes_Long;
#X msg 1063 319 Zoom_Short;
#X msg 1064 298 Zoom_Long;
#X msg 811 278 Estilhaco_Short;
#X msg 810 300 Estilhaco_Tratado;
#X msg 1322 296 Silence;
#X msg 1184 207 Attack_Long;
#X msg 1184 229 Attack_Short;
#X msg 1183 158 Sweep_Long;
#X msg 1183 181 Sweep_Short;
#X msg 1184 103 Mistro_Long;
#X msg 1183 128 Mistro_Short;
#X msg 1321 317 Tratados;
#X msg 1322 105 Luana_Long;
#X msg 1322 127 Luana_Short;
#X msg 1320 177 Vassoura_Long;
#X msg 1321 155 Vassoura_short;
#X msg 1322 204 Vasos_Long;
#X msg 1322 223 Vasos_Short;
#X msg 1321 248 Madrigale_Long;
#X msg 1322 269 Madrigale_Short;
#X msg 1435 99 Ockegen_Long;
#X msg 1435 122 Ockegen_Short;
#X msg 1435 144 Vasio_Long;
#X msg 1435 166 Vasio_Short;
#X msg 1435 197 Madeira_Short;
#X msg 1434 220 Maderira_Long;
#X msg 1435 243 Consoantes_Short;
#X msg 1434 266 Consoantes_Long;
#X msg 1433 319 Zoom_Short;
#X msg 1434 298 Zoom_Long;
#X msg 1181 278 Estilhaco_Short;
#X msg 1180 300 Estilhaco_Tratado;
#X msg 1692 296 Silence;
#X msg 1554 207 Attack_Long;
#X msg 1554 229 Attack_Short;
#X msg 1553 158 Sweep_Long;
#X msg 1553 181 Sweep_Short;
#X msg 1554 103 Mistro_Long;
#X msg 1553 128 Mistro_Short;
#X msg 1691 317 Tratados;
#X msg 1692 105 Luana_Long;
#X msg 1692 127 Luana_Short;
#X msg 1690 177 Vassoura_Long;
#X msg 1691 155 Vassoura_short;
#X msg 1692 204 Vasos_Long;
#X msg 1692 223 Vasos_Short;
#X msg 1691 248 Madrigale_Long;
#X msg 1692 269 Madrigale_Short;
#X msg 1805 99 Ockegen_Long;
#X msg 1805 122 Ockegen_Short;
#X msg 1805 144 Vasio_Long;
#X msg 1805 166 Vasio_Short;
#X msg 1805 197 Madeira_Short;
#X msg 1804 220 Maderira_Long;
#X msg 1805 243 Consoantes_Short;
#X msg 1804 266 Consoantes_Long;
#X msg 1803 319 Zoom_Short;
#X msg 1804 298 Zoom_Long;
#X msg 1551 278 Estilhaco_Short;
#X msg 1552 257 Estilhaco_Long;
#X msg 1550 300 Estilhaco_Tratado;
#X obj 685 529 vsl 15 228 0 1 0 0 empty empty empty 0 -9 0 10 -262144
-1 -1 22700 1;
#X obj 825 529 vsl 15 228 0 1 0 0 empty empty empty 0 -9 0 10 -262144
-1 -1 0 1;
#X obj 965 529 vsl 15 228 0 1 0 0 empty empty empty 0 -9 0 10 -262144
-1 -1 0 1;
#X obj 1105 529 vsl 15 228 0 1 0 0 empty empty empty 0 -9 0 10 -262144
-1 -1 0 1;
#X obj 1255 529 vsl 15 228 0 1 0 0 empty empty empty 0 -9 0 10 -262144
-1 -1 0 1;
#X obj 1039 803 sum;
#X obj 677 864 vsl 15 88 0 1 0 0 empty empty empty 0 -9 0 10 -262144
-1 -1 8700 1;
#X obj 825 865 vsl 15 88 0 1 0 0 empty empty empty 0 -9 0 10 -262144
-1 -1 0 1;
#X obj 962 861 vsl 15 88 0 1 0 0 empty empty empty 0 -9 0 10 -262144
-1 -1 0 1;
#X obj 1104 861 vsl 15 88 0 1 0 0 empty empty empty 0 -9 0 10 -262144
-1 -1 0 1;
#X obj 1261 859 vsl 15 88 0 1 0 0 empty empty empty 0 -9 0 10 -262144
-1 -1 0 1;
#X obj 825 774 t f b f;
#X obj 825 841 /;
#X obj 967 777 t f b f;
#X obj 1107 777 t f b f;
#X obj 1257 777 t f b f;
#X obj 686 771 t f f;
#X obj 677 839 /;
#X obj 962 840 /;
#X obj 1104 839 /;
#X obj 1261 837 /;
#X obj 695 799 pack f f f f f f;
#X obj 1290 383 list prepend fkey4;
#X obj 153 407 list prepend fkey1;
#X obj 567 401 list prepend fkey2;
#X obj 940 401 list prepend fkey3;
#X obj 1683 401 list prepend fkey5;
#X obj 615 964 list prepend fkeych1;
#X obj 785 961 list prepend fkeych2;
#X obj 953 955 list prepend fkeych3;
#X obj 718 648 list prepend set;
#X obj 717 667 list trim;
#X obj 858 648 list prepend set;
#X obj 857 667 list trim;
#X obj 998 648 list prepend set;
#X obj 997 667 list trim;
#X obj 1138 648 list prepend set;
#X obj 1137 667 list trim;
#X obj 1288 648 list prepend set;
#X obj 1287 667 list trim;
#X obj 508 562 list prepend set;
#X obj 507 581 list trim;
#X obj 146 563 list prepend set;
#X obj 145 582 list trim;
#X msg 717 689 Silence;
#X msg 857 689 Ockegen_Long;
#X msg 997 689 Mistro_Long;
#X msg 1137 689 Luana_Long;
#X msg 1287 689 Madrigale_Long;
#X msg 507 603 Ockegen_Long;
#X msg 145 604 Silence;
#X obj 1261 805 t b f;
#X obj 718 619 list split 1;
#X obj 860 622 list split 1;
#X obj 1000 622 list split 1;
#X obj 1140 622 list split 1;
#X obj 1290 622 list split 1;
#X obj 147 540 list split 1;
#X obj 508 541 list split 1;
#X msg 354 509 1 \, 0 14000;
#X msg 425 509 0 \, 1 14000;
#X obj 387 374 bng 25 250 50 0 empty empty empty 17 7 0 10 -262144
-1 -1;
#X obj 752 33 bng 25 250 50 0 empty empty empty 17 7 0 10 -262144 -1
-1;
#X text 779 36 DIA 1;
#X obj 684 507 line;
#X obj 824 507 line;
#X obj 964 507 line;
#X obj 1104 507 line;
#X obj 1254 507 line;
#X msg 647 473 1;
#X msg 677 473 0;
#X msg 787 473 1;
#X msg 817 473 0;
#X msg 927 473 1;
#X msg 957 473 0;
#X msg 1067 473 1;
#X msg 1097 473 0;
#X msg 1217 473 1;
#X msg 1247 473 0;
#X obj 1116 956 list prepend fkeych4;
#X obj 1279 959 list prepend fkeych5;
#X obj 1565 812 line;
#X floatatom 1565 838 5 0 0 0 - - -, f 5;
#X obj 1586 718 * 64000;
#X obj 1565 755 pack;
#X msg 1403 685 1;
#X msg 1688 687 0.1;
#X msg 1460 685 0.5;
#X msg 1431 685 0.3;
#X msg 1485 685 0.2;
#X msg 1511 685 0.1;
#X msg 1659 687 1;
#X msg 1630 687 5;
#X msg 1602 685 10;
#X msg 1571 685 20;
#X obj 1895 812 line;
#X floatatom 1895 838 5 0 0 0 - - -, f 5;
#X obj 1916 718 * 64000;
#X obj 1895 755 pack;
#X msg 1733 685 1;
#X msg 2018 687 0.1;
#X msg 1790 685 0.5;
#X msg 1761 685 0.3;
#X msg 1815 685 0.2;
#X msg 1841 685 0.1;
#X msg 1989 687 1;
#X msg 1960 687 5;
#X msg 1932 685 10;
#X msg 1901 685 20;
#X obj 2225 812 line;
#X floatatom 2225 838 5 0 0 0 - - -, f 5;
#X obj 2246 718 * 64000;
#X obj 2225 755 pack;
#X msg 2063 685 1;
#X msg 2348 687 0.1;
#X msg 2120 685 0.5;
#X msg 2091 685 0.3;
#X msg 2145 685 0.2;
#X msg 2171 685 0.1;
#X msg 2319 687 1;
#X msg 2290 687 5;
#X msg 2262 685 10;
#X msg 2231 685 20;
#X obj 2545 812 line;
#X floatatom 2545 838 5 0 0 0 - - -, f 5;
#X obj 2566 718 * 64000;
#X obj 2545 755 pack;
#X msg 2383 685 1;
#X msg 2668 687 0.1;
#X msg 2440 685 0.5;
#X msg 2411 685 0.3;
#X msg 2465 685 0.2;
#X msg 2491 685 0.1;
#X msg 2639 687 1;
#X msg 2610 687 5;
#X msg 2582 685 10;
#X msg 2551 685 20;
#X obj 2865 812 line;
#X floatatom 2865 838 5 0 0 0 - - -, f 5;
#X obj 2886 718 * 64000;
#X obj 2865 755 pack;
#X msg 2703 685 1;
#X msg 3001 689 0.1;
#X msg 2760 685 0.5;
#X msg 2731 685 0.3;
#X msg 2785 685 0.2;
#X msg 2809 684 0.1;
#X msg 2962 686 1;
#X msg 2930 687 5;
#X msg 2894 684 10;
#X msg 2860 687 20;
#X msg 1542 685 0;
#X msg 1870 687 0;
#X msg 2200 683 0;
#X msg 2520 685 0;
#X msg 2837 685 0;
#X msg 1565 784 \$1 \$2;
#X msg 1895 784 \$1 \$2;
#X msg 2225 784 \$1 \$2;
#X msg 2545 784 \$1 \$2;
#X msg 2865 784 \$1 \$2;
#X floatatom 1417 594 5 0 0 0 - - -, f 5;
#X obj 1571 552 bng 15 250 50 0 empty empty empty 17 7 0 10 -262144
-1 -1;
#X obj 1570 580 counter 12;
#X obj 2171 422 route 1 2 3 4 5 6 7 8 9 10 11 12;
#X obj 1679 445 tgl 15 0 empty empty empty 17 7 0 10 -262144 -1 -1
1 1;
#X obj 1631 481 metro 320000;
#X msg 1658 514 0;
#X msg 812 257 Palavras_Long;
#X msg 1182 257 Palavras_Long;
#X connect 1 0 0 0;
#X connect 2 0 1 0;
#X connect 3 0 2 0;
#X connect 4 0 3 0;
#X connect 5 0 0 0;
#X connect 6 0 0 0;
#X connect 7 0 5 0;
#X connect 8 0 4 0;
#X connect 9 0 8 0;
#X connect 11 0 16 0;
#X connect 12 0 11 0;
#X connect 13 0 11 0;
#X connect 14 0 11 0;
#X connect 15 0 11 0;
#X connect 16 0 10 0;
#X connect 16 0 9 0;
#X connect 17 0 183 0;
#X connect 18 0 183 0;
#X connect 19 0 183 0;
#X connect 20 0 183 0;
#X connect 21 0 183 0;
#X connect 22 0 183 0;
#X connect 23 0 183 0;
#X connect 24 0 183 0;
#X connect 25 0 183 0;
#X connect 26 0 183 0;
#X connect 27 0 183 0;
#X connect 28 0 183 0;
#X connect 29 0 183 0;
#X connect 30 0 183 0;
#X connect 31 0 183 0;
#X connect 32 0 183 0;
#X connect 33 0 183 0;
#X connect 34 0 183 0;
#X connect 35 0 183 0;
#X connect 36 0 183 0;
#X connect 37 0 183 0;
#X connect 38 0 183 0;
#X connect 39 0 183 0;
#X connect 40 0 183 0;
#X connect 41 0 183 0;
#X connect 42 0 183 0;
#X connect 43 0 183 0;
#X connect 44 0 183 0;
#X connect 45 0 183 0;
#X connect 46 0 184 0;
#X connect 47 0 184 0;
#X connect 48 0 184 0;
#X connect 49 0 184 0;
#X connect 50 0 184 0;
#X connect 51 0 184 0;
#X connect 52 0 184 0;
#X connect 53 0 184 0;
#X connect 54 0 184 0;
#X connect 55 0 184 0;
#X connect 56 0 184 0;
#X connect 57 0 184 0;
#X connect 58 0 184 0;
#X connect 59 0 184 0;
#X connect 60 0 184 0;
#X connect 61 0 184 0;
#X connect 62 0 184 0;
#X connect 63 0 184 0;
#X connect 64 0 184 0;
#X connect 65 0 184 0;
#X connect 66 0 184 0;
#X connect 67 0 184 0;
#X connect 68 0 184 0;
#X connect 69 0 184 0;
#X connect 70 0 184 0;
#X connect 71 0 184 0;
#X connect 72 0 184 0;
#X connect 73 0 184 0;
#X connect 74 0 184 0;
#X connect 75 0 185 0;
#X connect 76 0 185 0;
#X connect 77 0 185 0;
#X connect 78 0 185 0;
#X connect 79 0 185 0;
#X connect 80 0 185 0;
#X connect 81 0 185 0;
#X connect 82 0 185 0;
#X connect 83 0 185 0;
#X connect 84 0 185 0;
#X connect 85 0 185 0;
#X connect 86 0 185 0;
#X connect 87 0 185 0;
#X connect 88 0 185 0;
#X connect 89 0 185 0;
#X connect 90 0 185 0;
#X connect 91 0 185 0;
#X connect 92 0 185 0;
#X connect 93 0 185 0;
#X connect 94 0 185 0;
#X connect 95 0 185 0;
#X connect 96 0 185 0;
#X connect 97 0 185 0;
#X connect 98 0 185 0;
#X connect 99 0 185 0;
#X connect 100 0 185 0;
#X connect 101 0 185 0;
#X connect 102 0 185 0;
#X connect 103 0 182 0;
#X connect 104 0 182 0;
#X connect 105 0 182 0;
#X connect 106 0 182 0;
#X connect 107 0 182 0;
#X connect 108 0 182 0;
#X connect 109 0 182 0;
#X connect 110 0 182 0;
#X connect 111 0 182 0;
#X connect 112 0 182 0;
#X connect 113 0 182 0;
#X connect 114 0 182 0;
#X connect 115 0 182 0;
#X connect 116 0 182 0;
#X connect 117 0 182 0;
#X connect 118 0 182 0;
#X connect 119 0 182 0;
#X connect 120 0 182 0;
#X connect 121 0 182 0;
#X connect 122 0 182 0;
#X connect 123 0 182 0;
#X connect 124 0 182 0;
#X connect 125 0 182 0;
#X connect 126 0 182 0;
#X connect 127 0 182 0;
#X connect 128 0 182 0;
#X connect 129 0 182 0;
#X connect 130 0 182 0;
#X connect 131 0 186 0;
#X connect 132 0 186 0;
#X connect 133 0 186 0;
#X connect 134 0 186 0;
#X connect 135 0 186 0;
#X connect 136 0 186 0;
#X connect 137 0 186 0;
#X connect 138 0 186 0;
#X connect 139 0 186 0;
#X connect 140 0 186 0;
#X connect 141 0 186 0;
#X connect 142 0 186 0;
#X connect 143 0 186 0;
#X connect 144 0 186 0;
#X connect 145 0 186 0;
#X connect 146 0 186 0;
#X connect 147 0 186 0;
#X connect 148 0 186 0;
#X connect 149 0 186 0;
#X connect 150 0 186 0;
#X connect 151 0 186 0;
#X connect 152 0 186 0;
#X connect 153 0 186 0;
#X connect 154 0 186 0;
#X connect 155 0 186 0;
#X connect 156 0 186 0;
#X connect 157 0 186 0;
#X connect 158 0 186 0;
#X connect 159 0 186 0;
#X connect 160 0 176 0;
#X connect 161 0 171 0;
#X connect 162 0 173 0;
#X connect 163 0 174 0;
#X connect 164 0 175 0;
#X connect 165 0 211 0;
#X connect 166 0 187 0;
#X connect 167 0 188 0;
#X connect 168 0 189 0;
#X connect 169 0 239 0;
#X connect 170 0 240 0;
#X connect 171 0 172 0;
#X connect 171 1 181 0;
#X connect 171 2 181 1;
#X connect 172 0 167 0;
#X connect 173 0 178 0;
#X connect 173 1 181 0;
#X connect 173 2 181 2;
#X connect 174 0 179 0;
#X connect 174 1 181 0;
#X connect 174 2 181 3;
#X connect 175 0 180 0;
#X connect 175 1 181 0;
#X connect 175 2 181 4;
#X connect 176 0 177 0;
#X connect 176 1 181 0;
#X connect 177 0 166 0;
#X connect 178 0 168 0;
#X connect 179 0 169 0;
#X connect 180 0 170 0;
#X connect 181 0 165 0;
#X connect 182 0 8 0;
#X connect 182 0 215 0;
#X connect 183 0 8 0;
#X connect 183 0 212 0;
#X connect 183 0 217 0;
#X connect 184 0 8 0;
#X connect 184 0 213 0;
#X connect 184 0 218 0;
#X connect 185 0 8 0;
#X connect 185 0 214 0;
#X connect 186 0 8 0;
#X connect 186 0 216 0;
#X connect 187 0 8 0;
#X connect 188 0 8 0;
#X connect 189 0 8 0;
#X connect 190 0 191 0;
#X connect 191 0 204 0;
#X connect 192 0 193 0;
#X connect 193 0 205 0;
#X connect 194 0 195 0;
#X connect 195 0 206 0;
#X connect 196 0 197 0;
#X connect 197 0 207 0;
#X connect 198 0 199 0;
#X connect 199 0 208 0;
#X connect 200 0 201 0;
#X connect 201 0 209 0;
#X connect 202 0 203 0;
#X connect 203 0 210 0;
#X connect 211 0 180 0;
#X connect 211 0 179 0;
#X connect 211 0 178 0;
#X connect 211 0 172 0;
#X connect 211 0 177 0;
#X connect 211 1 180 1;
#X connect 211 1 179 1;
#X connect 211 1 178 1;
#X connect 211 1 172 1;
#X connect 211 1 177 1;
#X connect 212 1 190 0;
#X connect 213 1 192 0;
#X connect 214 1 194 0;
#X connect 215 1 196 0;
#X connect 216 1 198 0;
#X connect 217 1 202 0;
#X connect 218 1 200 0;
#X connect 219 0 11 0;
#X connect 220 0 11 0;
#X connect 221 0 17 0;
#X connect 221 0 48 0;
#X connect 221 0 13 0;
#X connect 222 0 17 0;
#X connect 222 0 62 0;
#X connect 222 0 80 0;
#X connect 222 0 111 0;
#X connect 222 0 145 0;
#X connect 222 0 229 0;
#X connect 222 0 232 0;
#X connect 222 0 234 0;
#X connect 222 0 236 0;
#X connect 222 0 238 0;
#X connect 224 0 160 0;
#X connect 225 0 161 0;
#X connect 226 0 162 0;
#X connect 227 0 163 0;
#X connect 228 0 164 0;
#X connect 229 0 224 0;
#X connect 229 0 241 0;
#X connect 230 0 224 0;
#X connect 230 0 241 0;
#X connect 231 0 225 0;
#X connect 231 0 255 0;
#X connect 232 0 225 0;
#X connect 232 0 255 0;
#X connect 233 0 226 0;
#X connect 233 0 269 0;
#X connect 234 0 226 0;
#X connect 234 0 269 0;
#X connect 235 0 227 0;
#X connect 235 0 283 0;
#X connect 236 0 227 0;
#X connect 236 0 283 0;
#X connect 237 0 228 0;
#X connect 237 0 297 0;
#X connect 238 0 228 0;
#X connect 238 0 297 0;
#X connect 239 0 8 0;
#X connect 240 0 8 0;
#X connect 241 0 242 0;
#X connect 241 0 160 0;
#X connect 243 0 244 1;
#X connect 244 0 316 0;
#X connect 245 0 244 0;
#X connect 246 0 243 0;
#X connect 247 0 244 0;
#X connect 248 0 244 0;
#X connect 249 0 244 0;
#X connect 250 0 244 0;
#X connect 251 0 243 0;
#X connect 252 0 243 0;
#X connect 253 0 243 0;
#X connect 254 0 243 0;
#X connect 255 0 256 0;
#X connect 255 0 161 0;
#X connect 257 0 258 1;
#X connect 258 0 317 0;
#X connect 259 0 258 0;
#X connect 260 0 257 0;
#X connect 261 0 258 0;
#X connect 262 0 258 0;
#X connect 263 0 258 0;
#X connect 264 0 258 0;
#X connect 265 0 257 0;
#X connect 266 0 257 0;
#X connect 267 0 257 0;
#X connect 268 0 257 0;
#X connect 269 0 270 0;
#X connect 269 0 162 0;
#X connect 271 0 272 1;
#X connect 272 0 318 0;
#X connect 273 0 272 0;
#X connect 274 0 271 0;
#X connect 275 0 272 0;
#X connect 276 0 272 0;
#X connect 277 0 272 0;
#X connect 278 0 272 0;
#X connect 279 0 271 0;
#X connect 280 0 271 0;
#X connect 281 0 271 0;
#X connect 282 0 271 0;
#X connect 283 0 284 0;
#X connect 283 0 163 0;
#X connect 285 0 286 1;
#X connect 286 0 319 0;
#X connect 287 0 286 0;
#X connect 288 0 285 0;
#X connect 289 0 286 0;
#X connect 290 0 286 0;
#X connect 291 0 286 0;
#X connect 292 0 286 0;
#X connect 293 0 285 0;
#X connect 294 0 285 0;
#X connect 295 0 285 0;
#X connect 296 0 285 0;
#X connect 297 0 298 0;
#X connect 297 0 164 0;
#X connect 299 0 300 1;
#X connect 300 0 320 0;
#X connect 301 0 300 0;
#X connect 302 0 299 0;
#X connect 303 0 300 0;
#X connect 304 0 300 0;
#X connect 305 0 300 0;
#X connect 306 0 300 0;
#X connect 307 0 299 0;
#X connect 308 0 299 0;
#X connect 309 0 299 0;
#X connect 310 0 299 0;
#X connect 311 0 244 0;
#X connect 312 0 258 0;
#X connect 313 0 272 0;
#X connect 314 0 286 0;
#X connect 315 0 300 0;
#X connect 316 0 241 0;
#X connect 317 0 255 0;
#X connect 318 0 269 0;
#X connect 319 0 283 0;
#X connect 320 0 297 0;
#X connect 322 0 323 0;
#X connect 323 0 321 0;
#X connect 323 0 324 0;
#X connect 324 0 259 0;
#X connect 324 0 313 0;
#X connect 324 0 314 0;
#X connect 324 1 311 0;
#X connect 324 2 273 0;
#X connect 324 2 312 0;
#X connect 324 3 287 0;
#X connect 324 3 313 0;
#X connect 324 4 301 0;
#X connect 324 4 314 0;
#X connect 324 5 273 0;
#X connect 324 5 287 0;
#X connect 324 5 315 0;
#X connect 324 6 261 0;
#X connect 324 6 277 0;
#X connect 324 7 304 0;
#X connect 324 7 313 0;
#X connect 324 8 291 0;
#X connect 324 9 301 0;
#X connect 324 9 259 0;
#X connect 324 10 315 0;
#X connect 324 10 287 0;
#X connect 324 10 273 0;
#X connect 324 10 259 0;
#X connect 324 11 301 0;
#X connect 324 12 315 0;
#X connect 324 12 291 0;
#X connect 324 12 277 0;
#X connect 324 12 263 0;
#X connect 324 12 245 0;
#X connect 325 0 326 0;
#X connect 326 0 322 0;
#X connect 327 0 323 3;
#X connect 328 0 185 0;
#X connect 329 0 182 0;
