#N canvas 1 41 958 1015 10;
#X obj 549 443 netsend -u -b;
#X obj 568 407 list trim;
#X obj 568 380 list prepend send;
#X obj 568 353 oscformat /oo;
#X obj 568 326 list;
#X msg 635 443 connect localhost 57120;
#X msg 788 442 disconnect;
#X obj 635 420 loadbang;
#X obj 118 133 vsl 15 100 0 1 0 0 empty empty empty 0 -9 0 10 -262144
-1 -1 0 1;
#X obj 119 302 list prepend chooseKey set;
#X msg 118 278 fkeych \$1;
#X floatatom 187 230 5 0 0 0 - - -, f 5;
#X obj 118 103 line;
#X msg 93 35 1;
#X msg 127 34 0;
#X msg 179 35 1 \, 0 64000;
#X msg 250 35 0 \, 1 64000;
#X connect 1 0 0 0;
#X connect 2 0 1 0;
#X connect 3 0 2 0;
#X connect 4 0 3 0;
#X connect 5 0 0 0;
#X connect 6 0 0 0;
#X connect 7 0 5 0;
#X connect 8 0 10 0;
#X connect 8 0 11 0;
#X connect 9 0 4 0;
#X connect 10 0 9 0;
#X connect 12 0 8 0;
#X connect 13 0 12 0;
#X connect 14 0 12 0;
#X connect 15 0 12 0;
#X connect 16 0 12 0;
