#N canvas 1 41 958 1038 10;
#X obj 16 -5 vsl 15 100 0 1.5 0 0 empty empty empty 0 -9 0 10 -262144
-1 -1 4600 1;
#X obj 38 11 hsl 100 15 -0.9 0.9 0 0 empty empty empty -2 -8 0 10 -262144
-1 -1 0 1;
#X obj 34 29 hsl 100 15 0 1 0 0 empty empty empty -2 -8 0 10 -262144
-1 -1 0 1;
#X msg 140 29 offset \$1;
#X obj 36 46 hsl 100 15 0 1 0 0 empty empty empty -2 -8 0 10 -262144
-1 -1 0 1;
#X msg 140 46 dur \$1;
#X msg 140 12 pan \$1;
#X obj 36 63 hsl 100 15 -2 2 0 0 empty empty empty -2 -8 0 10 -262144
-1 -1 0 1;
#X msg 140 63 rate \$1;
#X obj 37 82 hsl 100 15 0.01 100 0 0 empty empty empty -2 -8 0 10 -262144
-1 -1 0 1;
#X msg 140 80 freq \$1;
#X obj 246 6 vsl 15 100 0 1.5 0 0 empty empty empty 0 -9 0 10 -262144
-1 -1 0 1;
#X msg 246 109 amp \$1;
#X obj 267 11 hsl 100 15 -0.9 0.9 0 0 empty empty empty -2 -8 0 10
-262144 -1 -1 0 1;
#X obj 267 28 hsl 100 15 0 1 0 0 empty empty empty -2 -8 0 10 -262144
-1 -1 0 1;
#X msg 371 28 offset \$1;
#X obj 267 45 hsl 100 15 0 1 0 0 empty empty empty -2 -8 0 10 -262144
-1 -1 0 1;
#X msg 371 45 dur \$1;
#X msg 371 11 pan \$1;
#X obj 267 62 hsl 100 15 -2 2 0 0 empty empty empty -2 -8 0 10 -262144
-1 -1 0 1;
#X msg 371 62 rate \$1;
#X obj 267 79 hsl 100 15 0.01 100 0 0 empty empty empty -2 -8 0 10
-262144 -1 -1 9900 1;
#X msg 371 79 freq \$1;
#X obj 103 371 netsend -u -b;
#X obj 122 335 list trim;
#X obj 122 308 list prepend send;
#X obj 122 281 oscformat /oo;
#X obj 122 254 list;
#X obj 17 178 list prepend testee set;
#X msg 15 110 de \$1;
#X msg 103 199 connect localhost 57120;
#X msg 323 224 disconnect;
#X obj 246 138 list prepend vasoX set;
#X connect 0 0 29 0;
#X connect 1 0 6 0;
#X connect 2 0 3 0;
#X connect 3 0 28 0;
#X connect 4 0 5 0;
#X connect 5 0 28 0;
#X connect 6 0 28 0;
#X connect 7 0 8 0;
#X connect 8 0 28 0;
#X connect 9 0 10 0;
#X connect 10 0 28 0;
#X connect 11 0 12 0;
#X connect 12 0 32 0;
#X connect 13 0 18 0;
#X connect 14 0 15 0;
#X connect 15 0 32 0;
#X connect 16 0 17 0;
#X connect 17 0 32 0;
#X connect 18 0 32 0;
#X connect 19 0 20 0;
#X connect 20 0 32 0;
#X connect 21 0 22 0;
#X connect 22 0 32 0;
#X connect 24 0 23 0;
#X connect 25 0 24 0;
#X connect 26 0 25 0;
#X connect 27 0 26 0;
#X connect 28 0 27 0;
#X connect 29 0 28 0;
#X connect 30 0 23 0;
#X connect 31 0 23 0;
#X connect 32 0 27 0;
